<mxfile host="Electron" agent="Mozilla/5.0 (Windows NT 10.0; Win64; x64) AppleWebKit/537.36 (KHTML, like Gecko) draw.io/26.0.15 Chrome/132.0.6834.196 Electron/34.2.0 Safari/537.36" version="26.0.15">
  <diagram name="Page-1" id="SiqeQ7eL_P8_37SV-j_4">
    <mxGraphModel dx="650" dy="420" grid="1" gridSize="10" guides="1" tooltips="1" connect="1" arrows="1" fold="1" page="1" pageScale="1" pageWidth="570" pageHeight="940" math="0" shadow="0">
      <root>
        <mxCell id="0" />
        <mxCell id="1" parent="0" />
        <mxCell id="Zo84_80SNWug4lSFrY-s-5" value="Fly" style="swimlane;fontStyle=1;align=center;verticalAlign=top;childLayout=stackLayout;horizontal=1;startSize=26;horizontalStack=0;resizeParent=1;resizeParentMax=0;resizeLast=0;collapsible=1;marginBottom=0;whiteSpace=wrap;html=1;fillColor=none;" vertex="1" parent="1">
          <mxGeometry x="110" y="330" width="130" height="80" as="geometry" />
        </mxCell>
        <mxCell id="Zo84_80SNWug4lSFrY-s-6" value="" style="line;strokeWidth=1;fillColor=none;align=left;verticalAlign=middle;spacingTop=-1;spacingLeft=3;spacingRight=3;rotatable=0;labelPosition=right;points=[];portConstraint=eastwest;strokeColor=inherit;" vertex="1" parent="Zo84_80SNWug4lSFrY-s-5">
          <mxGeometry y="26" width="130" height="54" as="geometry" />
        </mxCell>
        <mxCell id="Zo84_80SNWug4lSFrY-s-7" value="Airport" style="swimlane;fontStyle=1;align=center;verticalAlign=top;childLayout=stackLayout;horizontal=1;startSize=26;horizontalStack=0;resizeParent=1;resizeParentMax=0;resizeLast=0;collapsible=1;marginBottom=0;whiteSpace=wrap;html=1;fillColor=none;" vertex="1" parent="1">
          <mxGeometry x="381" y="330" width="130" height="80" as="geometry" />
        </mxCell>
        <mxCell id="Zo84_80SNWug4lSFrY-s-8" value="" style="line;strokeWidth=1;fillColor=none;align=left;verticalAlign=middle;spacingTop=-1;spacingLeft=3;spacingRight=3;rotatable=0;labelPosition=right;points=[];portConstraint=eastwest;strokeColor=inherit;" vertex="1" parent="Zo84_80SNWug4lSFrY-s-7">
          <mxGeometry y="26" width="130" height="54" as="geometry" />
        </mxCell>
        <mxCell id="Zo84_80SNWug4lSFrY-s-9" value="" style="endArrow=none;html=1;rounded=0;entryX=0;entryY=0.5;entryDx=0;entryDy=0;" edge="1" parent="1" target="Zo84_80SNWug4lSFrY-s-7">
          <mxGeometry width="50" height="50" relative="1" as="geometry">
            <mxPoint x="240" y="370" as="sourcePoint" />
            <mxPoint x="380" y="370" as="targetPoint" />
          </mxGeometry>
        </mxCell>
        <mxCell id="Zo84_80SNWug4lSFrY-s-10" value="2" style="text;html=1;align=center;verticalAlign=middle;whiteSpace=wrap;rounded=0;" vertex="1" parent="1">
          <mxGeometry x="350" y="351" width="30" height="10" as="geometry" />
        </mxCell>
        <mxCell id="Zo84_80SNWug4lSFrY-s-11" value="0..*" style="text;html=1;align=center;verticalAlign=middle;whiteSpace=wrap;rounded=0;" vertex="1" parent="1">
          <mxGeometry x="240" y="351" width="30" height="10" as="geometry" />
        </mxCell>
        <mxCell id="Zo84_80SNWug4lSFrY-s-12" value="Arrival Airport" style="swimlane;fontStyle=1;align=center;verticalAlign=top;childLayout=stackLayout;horizontal=1;startSize=26;horizontalStack=0;resizeParent=1;resizeParentMax=0;resizeLast=0;collapsible=1;marginBottom=0;whiteSpace=wrap;html=1;fillColor=none;" vertex="1" parent="1">
          <mxGeometry x="280" y="480" width="130" height="80" as="geometry" />
        </mxCell>
        <mxCell id="Zo84_80SNWug4lSFrY-s-13" value="" style="line;strokeWidth=1;fillColor=none;align=left;verticalAlign=middle;spacingTop=-1;spacingLeft=3;spacingRight=3;rotatable=0;labelPosition=right;points=[];portConstraint=eastwest;strokeColor=inherit;" vertex="1" parent="Zo84_80SNWug4lSFrY-s-12">
          <mxGeometry y="26" width="130" height="54" as="geometry" />
        </mxCell>
        <mxCell id="Zo84_80SNWug4lSFrY-s-14" value="Departure Airport" style="swimlane;fontStyle=1;align=center;verticalAlign=top;childLayout=stackLayout;horizontal=1;startSize=26;horizontalStack=0;resizeParent=1;resizeParentMax=0;resizeLast=0;collapsible=1;marginBottom=0;whiteSpace=wrap;html=1;fillColor=none;" vertex="1" parent="1">
          <mxGeometry x="490" y="480" width="130" height="80" as="geometry" />
        </mxCell>
        <mxCell id="Zo84_80SNWug4lSFrY-s-15" value="" style="line;strokeWidth=1;fillColor=none;align=left;verticalAlign=middle;spacingTop=-1;spacingLeft=3;spacingRight=3;rotatable=0;labelPosition=right;points=[];portConstraint=eastwest;strokeColor=inherit;" vertex="1" parent="Zo84_80SNWug4lSFrY-s-14">
          <mxGeometry y="26" width="130" height="54" as="geometry" />
        </mxCell>
        <mxCell id="Zo84_80SNWug4lSFrY-s-17" value="" style="endArrow=block;html=1;rounded=0;endFill=0;endSize=11;elbow=vertical;exitX=0.5;exitY=0;exitDx=0;exitDy=0;" edge="1" parent="1" source="Zo84_80SNWug4lSFrY-s-14">
          <mxGeometry width="50" height="50" relative="1" as="geometry">
            <mxPoint x="510" y="450" as="sourcePoint" />
            <mxPoint x="480" y="410" as="targetPoint" />
          </mxGeometry>
        </mxCell>
        <mxCell id="Zo84_80SNWug4lSFrY-s-19" value="" style="endArrow=block;html=1;rounded=0;endFill=0;endSize=11;elbow=vertical;exitX=0.5;exitY=0;exitDx=0;exitDy=0;entryX=0.25;entryY=1;entryDx=0;entryDy=0;" edge="1" parent="1" source="Zo84_80SNWug4lSFrY-s-12" target="Zo84_80SNWug4lSFrY-s-7">
          <mxGeometry width="50" height="50" relative="1" as="geometry">
            <mxPoint x="565" y="490" as="sourcePoint" />
            <mxPoint x="490" y="420" as="targetPoint" />
          </mxGeometry>
        </mxCell>
      </root>
    </mxGraphModel>
  </diagram>
</mxfile>
